<svg width="130" height="123" viewBox="0 0 130 123" fill="none" xmlns="http://www.w3.org/2000/svg">
<path d="M75.0064 54.3979V39.7557C75.0064 33.4275 69.8787 28.311 63.5616 28.311C57.2446 28.311 52.1172 33.4387 52.1172 39.7557V54.3979L63.5616 62.4206L75.0064 54.3979Z" fill="#394FFF"/>
<path d="M14.4174 30.7919C10.2772 27.8858 4.56607 28.8956 1.66003 33.0359C-1.24602 37.1761 -0.236195 42.8873 3.90405 45.7932C8.04432 48.6994 13.7554 47.6894 16.6615 43.5491C19.5675 39.4089 18.5577 33.6979 14.4174 30.7919Z" fill="#01E5E3"/>
<path d="M63.562 19.1322C68.6185 19.1322 72.7178 15.0331 72.7178 9.97649C72.7178 4.91993 68.6185 0.820801 63.562 0.820801C58.5056 0.820801 54.4062 4.91993 54.4062 9.97649C54.4062 15.0331 58.5056 19.1322 63.562 19.1322Z" fill="url(#paint0_linear_903_432)"/>
<path d="M125.466 33.0476C122.56 28.9074 116.849 27.8975 112.709 30.8036C108.569 33.7096 107.559 39.4206 110.465 43.5611C113.371 47.7014 119.082 48.711 123.222 45.8051C127.362 42.8989 128.372 37.1878 125.466 33.0476Z" fill="#394FFF"/>
<path d="M102.957 48.8113C99.3329 43.6276 92.1855 42.3707 87.0131 45.9951L75.0187 54.399V76.3908C75.0187 76.3908 75.0187 76.4579 75.0187 76.4917C75.0412 72.8561 73.3468 69.2659 70.1378 67.0106L63.5742 62.4101L57.0103 67.0106C53.8013 69.2546 52.1069 72.8449 52.1294 76.4917C52.1294 76.4579 52.1294 76.4242 52.1294 76.3908V54.399L40.1349 45.9951C34.9513 42.3707 27.8152 43.6276 24.191 48.8113C20.5669 53.9949 21.8236 61.131 27.0073 64.7553L57.0215 85.7709C57.0215 85.7709 57.0662 85.8043 57.0887 85.8156C57.0215 85.7709 56.9652 85.7146 56.8981 85.6696C57.0103 85.7484 57.1112 85.8268 57.2234 85.894C57.4031 86.0174 57.5824 86.1296 57.7621 86.2309C57.773 86.2309 57.7843 86.2421 57.7955 86.253C57.9415 86.3318 58.0762 86.4215 58.2221 86.4887C58.3902 86.5787 58.5699 86.6684 58.738 86.7468C58.9177 86.8256 59.0971 86.904 59.2768 86.9824C59.4227 87.0387 59.5796 87.0946 59.7368 87.1509C59.9386 87.218 60.1517 87.2968 60.354 87.3527C60.4661 87.3865 60.5783 87.409 60.6792 87.4424C60.713 87.4424 60.7577 87.4649 60.7914 87.4762C61.0045 87.5324 61.2177 87.5771 61.4311 87.6221C61.5095 87.6334 61.5992 87.6446 61.6776 87.6671C61.7677 87.678 61.8461 87.6893 61.9358 87.7118C62.1267 87.7343 62.3173 87.768 62.497 87.7793C62.5867 87.7793 62.6764 87.7902 62.7661 87.8015C62.8895 87.8015 63.0242 87.8127 63.1476 87.824C63.2823 87.824 63.417 87.8352 63.563 87.8352C63.6973 87.8352 63.832 87.8352 63.9779 87.824C64.1126 87.824 64.2361 87.824 64.3595 87.8015C64.4492 87.8015 64.5389 87.8015 64.6289 87.7793C64.8195 87.7568 65.0101 87.7343 65.1898 87.7118C65.2795 87.7005 65.3579 87.6893 65.4479 87.6671C65.5263 87.6558 65.616 87.6446 65.6948 87.6221C65.9079 87.5771 66.121 87.5324 66.3341 87.4762C66.3679 87.4762 66.4129 87.4537 66.4463 87.4424C66.5585 87.409 66.6707 87.3865 66.772 87.3527C66.9851 87.2968 67.1869 87.218 67.3888 87.1509C67.546 87.0946 67.6919 87.0387 67.8488 86.9824C68.0285 86.904 68.2078 86.8256 68.3875 86.7468C68.5669 86.6684 68.7353 86.5787 68.9147 86.4887C69.0606 86.4102 69.2066 86.3318 69.3413 86.253C69.3525 86.253 69.3638 86.2421 69.375 86.2309C69.5544 86.1187 69.745 86.0065 69.9247 85.894C70.0369 85.8156 70.1378 85.7484 70.25 85.6696C70.1828 85.7146 70.1266 85.7709 70.0594 85.8156C70.0819 85.8043 70.1041 85.7931 70.1266 85.7709L100.141 64.7553C105.325 61.131 106.581 53.9837 102.957 48.8113ZM54.1828 82.9656C54.1828 82.9656 54.1603 82.9319 54.1491 82.9097C54.2162 83.0106 54.295 83.1003 54.3622 83.19C54.3063 83.1116 54.2387 83.044 54.1828 82.9656ZM72.9431 82.9656C72.8868 83.044 72.8197 83.1116 72.7634 83.19C72.8306 83.0891 72.9093 82.9994 72.9765 82.9097C72.9653 82.9319 72.954 82.9431 72.9431 82.9656Z" fill="url(#paint1_linear_903_432)"/>
<g clip-path="url(#clip0_903_432)">
<path d="M22.2196 113.457L28.5122 106.376L28.6082 106.265V105.649H24.6406L24.5313 105.774L19.5833 111.523V105.649H16.0859V121.756H19.5833V115.536L25.1043 121.635L25.2135 121.753H29.1547V121.043L29.0554 120.933L22.2196 113.454V113.457Z" fill="white"/>
<path d="M40.1856 105.67H39.8213V114.841C39.8213 117.287 38.6456 118.691 36.5955 118.691C34.413 118.691 33.1611 117.287 33.1611 114.841V105.67H29.6836V114.841C29.6836 119.241 32.3894 122.081 36.5756 122.081C40.7618 122.081 43.2988 119.307 43.2988 114.841V105.67H40.1856Z" fill="white"/>
<path d="M52.0221 111.614C49.8959 111.351 49.0679 110.915 49.0679 110.064C49.0679 109.026 50.0681 108.407 51.7472 108.407C53.2376 108.407 54.4928 109.192 54.92 109.933L55.0955 110.237L55.4003 110.075L57.6027 108.891L57.9206 108.722L57.7616 108.386C56.7581 106.255 54.6518 105.128 51.6644 105.128C48.6539 105.152 45.6169 106.66 45.6169 109.981C45.6169 113.742 48.697 114.631 51.7108 115.008C53.0355 115.156 54.7909 115.513 54.7909 116.886C54.7909 118.668 52.4825 118.806 51.777 118.806C49.929 118.806 48.5116 117.986 47.9816 116.613L47.8326 116.225L47.4782 116.419L45.1698 117.668L44.875 117.827L45.0009 118.149C46.0508 120.847 48.2532 122.155 51.7406 122.155C55.7712 122.155 58.275 120.135 58.275 116.886C58.275 112.963 55.2777 112.036 52.0387 111.621L52.0221 111.614ZM55.8705 113.088C56.2282 113.295 56.5528 113.537 56.831 113.831C56.5561 113.537 56.2282 113.295 55.8705 113.088ZM49.6773 111.448C49.5282 111.375 49.3924 111.296 49.2733 111.206C49.3924 111.296 49.5282 111.379 49.6773 111.448ZM47.0576 107.179C46.8356 107.411 46.6403 107.667 46.4813 107.947C46.6436 107.663 46.8356 107.407 47.0576 107.179ZM46.1037 108.878C46.0177 109.217 45.9713 109.58 45.9713 109.974C45.9713 109.58 46.0177 109.213 46.1037 108.878ZM52.4494 114.724C52.6746 114.766 52.8931 114.81 53.0984 114.866C52.8931 114.81 52.6778 114.766 52.4494 114.724ZM45.7858 118.965C45.6136 118.671 45.458 118.349 45.3189 117.997L47.6273 116.748C48.2763 118.436 49.9787 119.18 51.7605 119.18C53.5423 119.18 55.1386 118.543 55.1386 116.879C55.1386 118.547 53.5025 119.18 51.7605 119.18C50.0184 119.18 48.2763 118.436 47.6273 116.748L45.3189 117.997C45.4546 118.346 45.6102 118.668 45.7858 118.965ZM54.0656 121.487C54.4298 121.39 54.7809 121.273 55.1121 121.124C54.7842 121.269 54.4331 121.39 54.0656 121.487Z" fill="white"/>
<path d="M60.5831 105.649H60.2188V106.03V121.372V121.753H60.5831H63.3319H63.6963V121.372V106.03V105.649H63.3319H60.5831Z" fill="white"/>
<path d="M66.2667 105.649H65.9023V106.03V108.659V109.039H66.2667H70.5622V121.372V121.753H70.9265H73.6953H74.0596V121.372V109.039H78.3552H78.7194V108.659V106.03V105.649H78.3552H66.2667Z" fill="white"/>
<path d="M92.9624 105.67H92.777L92.6677 105.826L88.3655 112.001L84.0634 105.826L83.9541 105.67H80.2148V121.777H83.7123V111.406L87.7329 117.152L87.8422 117.308H88.7563L88.8655 117.155L92.9955 111.406V121.781H96.4929V105.67H92.959H92.9624Z" fill="white"/>
<path d="M105.112 111.614C102.986 111.351 102.158 110.915 102.158 110.064C102.158 109.026 103.158 108.407 104.837 108.407C106.327 108.407 107.583 109.192 108.01 109.933L108.185 110.237L108.49 110.075L110.692 108.891L111.01 108.722L110.851 108.386C109.848 106.255 107.742 105.128 104.754 105.128C101.744 105.152 98.7066 106.66 98.7066 109.981C98.7066 113.742 101.787 114.631 104.801 115.008C106.125 115.156 107.881 115.513 107.881 116.886C107.881 118.668 105.572 118.806 104.867 118.806C103.019 118.806 101.601 117.986 101.071 116.613L100.922 116.225L100.568 116.419L98.2595 117.668L97.9648 117.827L98.0907 118.149C99.1405 120.847 101.343 122.155 104.83 122.155C108.861 122.155 111.365 120.135 111.365 116.886C111.365 112.963 108.367 112.036 105.128 111.621L105.112 111.614ZM108.96 113.084C109.318 113.292 109.643 113.534 109.921 113.828C109.646 113.534 109.318 113.292 108.96 113.084ZM102.767 111.445C102.618 111.372 102.482 111.292 102.363 111.202C102.482 111.292 102.618 111.375 102.767 111.445ZM110.52 108.549C110.172 107.809 109.702 107.234 109.149 106.792C109.702 107.231 110.172 107.809 110.52 108.549ZM100.147 107.176C99.9254 107.407 99.73 107.663 99.5711 107.944C99.7334 107.66 99.9254 107.404 100.147 107.176ZM99.1935 108.874C99.1074 109.213 99.061 109.576 99.061 109.971C99.061 109.576 99.1074 109.21 99.1935 108.874ZM105.539 114.721C105.764 114.762 105.983 114.807 106.188 114.862C105.983 114.807 105.768 114.762 105.539 114.721ZM98.8755 118.962C98.7033 118.668 98.5477 118.346 98.4086 117.993L100.717 116.744C101.366 118.432 103.068 119.176 104.85 119.176C106.632 119.176 108.228 118.54 108.228 116.876C108.228 118.543 106.592 119.176 104.85 119.176C103.108 119.176 101.366 118.432 100.717 116.744L98.4086 117.993C98.5444 118.343 98.7001 118.664 98.8755 118.962ZM107.155 121.484C107.52 121.387 107.871 121.269 108.202 121.12C107.874 121.266 107.523 121.387 107.155 121.484Z" fill="white"/>
</g>
<defs>
<linearGradient id="paint0_linear_903_432" x1="54.4062" y1="9.97649" x2="72.7178" y2="9.97649" gradientUnits="userSpaceOnUse">
<stop stop-color="#01E5E3"/>
<stop offset="0.04" stop-color="#05D7E5"/>
<stop offset="0.19" stop-color="#15AEED"/>
<stop offset="0.35" stop-color="#228BF3"/>
<stop offset="0.5" stop-color="#2C71F8"/>
<stop offset="0.66" stop-color="#335EFC"/>
<stop offset="0.83" stop-color="#3752FE"/>
<stop offset="1" stop-color="#394FFF"/>
</linearGradient>
<linearGradient id="paint1_linear_903_432" x1="22.0928" y1="65.8772" x2="105.022" y2="65.8772" gradientUnits="userSpaceOnUse">
<stop stop-color="#01E5E3"/>
<stop offset="0.02" stop-color="#04DCE4"/>
<stop offset="0.14" stop-color="#14B1EC"/>
<stop offset="0.26" stop-color="#218EF3"/>
<stop offset="0.38" stop-color="#2B72F8"/>
<stop offset="0.5" stop-color="#335EFC"/>
<stop offset="0.63" stop-color="#3752FE"/>
<stop offset="0.75" stop-color="#394FFF"/>
</linearGradient>
<clipPath id="clip0_903_432">
<rect width="95.6167" height="17.8723" fill="white" transform="translate(16.0859 105.128)"/>
</clipPath>
</defs>
</svg>
